<svg id="Layer_1" data-name="Layer 1" xmlns="http://www.w3.org/2000/svg" viewBox="0 0 231.37 55.6"><defs><style>.cls-1{fill:#fff;}</style></defs><title>decorations</title><g id="_Group_" data-name="&lt;Group&gt;"><g id="_Group_2" data-name="&lt;Group&gt;"><path id="_Path_" data-name="&lt;Path&gt;" class="cls-1" d="M432.44,149.21c1-.27,2,1.53,4,3.67a19.22,19.22,0,0,0,3.95,3.2,15.1,15.1,0,0,0,5.56,2,14.21,14.21,0,0,0,6.36-.6,15.65,15.65,0,0,0,3-1.36,14.75,14.75,0,0,0,2.56-2,13.73,13.73,0,0,0,4.11-9.93,19.24,19.24,0,0,0-8.25-15.73c-5.19-3.57-12-4.75-18.48-3.91a34.14,34.14,0,0,0-6.05,1.33,43.65,43.65,0,0,0-5.8,2.35,64.29,64.29,0,0,0-10.71,6.78c-6.8,5.19-13,11.42-20,17.17a82.45,82.45,0,0,1-11.38,8A51.23,51.23,0,0,1,368,165.61a36.36,36.36,0,0,1-15,.49,26.15,26.15,0,0,1-7.56-2.58,24.12,24.12,0,0,1-3.47-2.23,21.33,21.33,0,0,1-3.09-3,16.23,16.23,0,0,1-3-5.61l-.21-.77a5.7,5.7,0,0,1-.17-.81,11.49,11.49,0,0,1-.19-1.71,13.07,13.07,0,0,1,6.15-11.56c.32-.17.63-.33.93-.47a5.07,5.07,0,0,1,.91-.36l.88-.26c.29-.06.58-.09.85-.12a5.56,5.56,0,0,1,1.51,0,6.05,6.05,0,0,1,.64.09l.56.18a3.71,3.71,0,0,1,.87.42,3.18,3.18,0,0,1,.55.51,1.15,1.15,0,0,1,.32.91c-.08.57-.69,1-1.43,1.47a8.91,8.91,0,0,0-2.45,2.2,9.93,9.93,0,0,0-1,1.61,10,10,0,0,0-.72,2,7.08,7.08,0,0,0-.14,2.1,4.53,4.53,0,0,0,.21.91l.06.21c0,.07.08.18.11.26a5,5,0,0,0,.24.54,10.24,10.24,0,0,0,3.51,3.85,18,18,0,0,0,5.53,2.45,27.48,27.48,0,0,0,2.72.51c.93.13,1.88.19,2.83.23a31.18,31.18,0,0,0,5.77-.37A45.22,45.22,0,0,0,376,153.29c7.46-3.33,14.38-8.48,21.4-13.74s14.35-10.72,22.79-14.48a47.84,47.84,0,0,1,13.37-3.9,37,37,0,0,1,14.13.84,29.62,29.62,0,0,1,7.52,3.1,11.33,11.33,0,0,1,1.09.68c.36.25.73.49,1.1.76a23.44,23.44,0,0,1,2.16,1.86,25.33,25.33,0,0,1,2,2.22,26.83,26.83,0,0,1,1.77,2.6,24.07,24.07,0,0,1,2.61,6.12,22.12,22.12,0,0,1,.71,7.05,18.76,18.76,0,0,1-1.92,7.18c-.31.55-.61,1.11-.94,1.65a18.1,18.1,0,0,1-1.12,1.53,17.84,17.84,0,0,1-2.65,2.65,19,19,0,0,1-13.22,4.27,17,17,0,0,1-6.14-1.62,17.57,17.57,0,0,1-4.54-3.09,16.4,16.4,0,0,1-2.84-3.52,12.2,12.2,0,0,1-1.32-3.15C431.58,150.47,431.86,149.36,432.44,149.21Z" transform="translate(-235.39 -120.32)"/></g><g id="_Group_3" data-name="&lt;Group&gt;"><path id="_Path_2" data-name="&lt;Path&gt;" class="cls-1" d="M338.5,162.54c.22.29.12.73-.28,1.31a7.7,7.7,0,0,1-2.1,1.92,18.38,18.38,0,0,1-8.77,2.69,25.59,25.59,0,0,1-5.44-.2,30,30,0,0,1-5.26-1.19,33.82,33.82,0,0,1-4.58-1.81c-1.36-.65-2.55-1.3-3.52-1.87-8.05-4.68-14.39-10.95-22.06-15.61a38.27,38.27,0,0,0-15.41-5.73,24.71,24.71,0,0,0-4-.1,18.79,18.79,0,0,0-3.82.62,20.25,20.25,0,0,0-3.57,1.36,17.05,17.05,0,0,0-3.11,2,11.85,11.85,0,0,0-3.87,5.61,8.6,8.6,0,0,0-.27,3,10,10,0,0,0,.83,3.07,8.53,8.53,0,0,0,4,4.33,5.43,5.43,0,0,0,2.46.43,4.83,4.83,0,0,0,2.4-.8,9.12,9.12,0,0,0,2.86-3.12,12.62,12.62,0,0,0,1.4-3.67c.52-2.16.41-3.66,1.17-4.18.35-.24.85-.18,1.52.33a6.18,6.18,0,0,1,1.88,3.14,11.56,11.56,0,0,1,.16,4.95,13.26,13.26,0,0,1-2.4,5.54,12.27,12.27,0,0,1-5.52,4.26,17.7,17.7,0,0,1-1.81.51,15.93,15.93,0,0,1-1.87.21,18.09,18.09,0,0,1-1.83-.09c-.6-.11-1.2-.21-1.77-.37a12.85,12.85,0,0,1-5.2-3,15.31,15.31,0,0,1-3.34-4.54,17,17,0,0,1-1.55-5.27,14.68,14.68,0,0,1,.42-5.57,13.78,13.78,0,0,1,.44-1.34l.54-1.23a17.75,17.75,0,0,1,1.38-2.28,18,18,0,0,1,3.58-3.72,22.14,22.14,0,0,1,8.89-4.05,22.78,22.78,0,0,1,4.77-.53,27.68,27.68,0,0,1,4.69.37,35.64,35.64,0,0,1,8.78,2.7c5.55,2.47,10.47,6,15.3,9.52,2,1.48,5.58,4.07,9.83,6.78s9.34,5.42,14.43,6.57a32.6,32.6,0,0,0,7.38.89,28.07,28.07,0,0,0,6.1-.7c1.74-.38,3.09-.92,4.14-1.18S338.22,162.17,338.5,162.54Z" transform="translate(-235.39 -120.32)"/></g><g id="_Group_4" data-name="&lt;Group&gt;"><path id="_Path_3" data-name="&lt;Path&gt;" class="cls-1" d="M307.25,133.61a1.64,1.64,0,0,0-1.26.15,4.09,4.09,0,0,0-1.58,1.83,12.9,12.9,0,0,0-1.28,4.82,22.41,22.41,0,0,0,1,8.75,24.41,24.41,0,0,0,6.36,10.15,25.79,25.79,0,0,0,10,5.87,25.07,25.07,0,0,0,8.54,1.13,21.22,21.22,0,0,0,2.46-.25l.87-.14-.87-.17c-.56-.09-1.36-.29-2.34-.57a27,27,0,0,1-7.15-3.31,26.49,26.49,0,0,1-7-6.65,29.42,29.42,0,0,1-4-8.25,40.24,40.24,0,0,1-1.42-6.63c-.24-1.73-.4-3-.61-4a5.33,5.33,0,0,0-.79-2A1.87,1.87,0,0,0,307.25,133.61Z" transform="translate(-235.39 -120.32)"/></g><g id="_Group_5" data-name="&lt;Group&gt;"><path id="_Path_4" data-name="&lt;Path&gt;" class="cls-1" d="M365.39,175.16l.53.17a12.09,12.09,0,0,0,1.57.38,16.25,16.25,0,0,0,6.09-.18A22.27,22.27,0,0,0,382,171.7a31.21,31.21,0,0,0,7.53-8.11,60.19,60.19,0,0,0,4.83-9.27l3.19-7.59c.93-2.14,1.76-3.88,2.39-5.07.31-.6.56-1.07.74-1.38l.26-.49-.49.27c-.32.18-.78.45-1.36.84a30.42,30.42,0,0,0-4.54,3.77,53.4,53.4,0,0,0-5.53,6.62c-1.87,2.59-3.69,5.45-5.57,8.3a67.76,67.76,0,0,1-5.53,7.52,29.78,29.78,0,0,1-5.66,5,21.13,21.13,0,0,1-4.81,2.42c-.63.21-1.13.36-1.48.44Z" transform="translate(-235.39 -120.32)"/></g><g id="_Group_6" data-name="&lt;Group&gt;"><path id="_Path_5" data-name="&lt;Path&gt;" class="cls-1" d="M395.19,163.77s.43-.23,1.16-.71a26.58,26.58,0,0,0,2.9-2.18,27.08,27.08,0,0,0,9.68-20.4,26.58,26.58,0,0,0-.15-3.63c-.1-.86-.19-1.35-.19-1.35s-.35.36-.9,1-1.33,1.61-2.21,2.78A50.16,50.16,0,0,0,396.16,159c-.35,1.42-.59,2.63-.76,3.47S395.19,163.77,395.19,163.77Z" transform="translate(-235.39 -120.32)"/></g><g id="_Group_7" data-name="&lt;Group&gt;"><path id="_Path_6" data-name="&lt;Path&gt;" class="cls-1" d="M332.95,172.31s.7.33,2,.86l1.11.44c.41.14.86.27,1.34.42a29.43,29.43,0,0,0,3.34.85l2,.37c.69.12,1.42.17,2.17.24a38.76,38.76,0,0,0,4.84.16,38.69,38.69,0,0,0,20.89-6.87,38.75,38.75,0,0,0,3.8-3c.56-.51,1.11-1,1.6-1.48l1.38-1.47a29.43,29.43,0,0,0,2.18-2.67c.3-.41.59-.77.83-1.13l.63-1c.75-1.21,1.12-1.89,1.12-1.89s-.71.38-1.91,1.08l-1,.58-1.2.64c-.86.45-1.79,1-2.89,1.52l-1.67.84c-.58.29-1.21.55-1.83.84-1.24.61-2.62,1.14-4,1.76-2.85,1.15-6,2.31-9.26,3.42s-6.51,2-9.48,2.74c-1.49.33-2.92.72-4.28,1-.68.13-1.34.3-2,.41l-1.85.31c-1.19.24-2.27.34-3.23.49l-1.35.2-1.14.11C333.74,172.19,332.95,172.31,332.95,172.31Z" transform="translate(-235.39 -120.32)"/></g><g id="_Group_8" data-name="&lt;Group&gt;"><path id="_Path_7" data-name="&lt;Path&gt;" class="cls-1" d="M436,140.27s-.1.3-.25.9a6.86,6.86,0,0,0-.21,1.11l-.09.72c0,.25,0,.52,0,.81a12.7,12.7,0,0,0,3.27,8.38,13.09,13.09,0,0,0,5.22,3.63,12.79,12.79,0,0,0,3.7.78,13.58,13.58,0,0,0,3.82-.33,15,15,0,0,0,6.81-3.62,15.27,15.27,0,0,0,4.38-7,16.26,16.26,0,0,0,.19-8,17.87,17.87,0,0,0-2.83-6.41,18.08,18.08,0,0,0-4.4-4.41,20.07,20.07,0,0,0-4.57-2.39,21.7,21.7,0,0,0-6.94-1.32c-.82,0-1.45,0-1.88,0l-.65,0,.65.06c.42,0,1,.11,1.84.25a23.81,23.81,0,0,1,6.5,2.06,20.55,20.55,0,0,1,4,2.59,17.45,17.45,0,0,1,3.69,4.22,16.83,16.83,0,0,1,2.26,5.74,14.76,14.76,0,0,1-.25,6.81,13.59,13.59,0,0,1-3.62,6,13.41,13.41,0,0,1-5.71,3.32,11.5,11.5,0,0,1-6.47,0,12.53,12.53,0,0,1-8.66-10.44c0-.28-.05-.54-.06-.78v-.7a6.86,6.86,0,0,1,.09-1.11Z" transform="translate(-235.39 -120.32)"/><path id="_Path_8" data-name="&lt;Path&gt;" class="cls-1" d="M441,144.56l.06.43a6.29,6.29,0,0,0,.31,1.21,7.93,7.93,0,0,0,2.87,3.75,7.15,7.15,0,0,0,3.17,1.26,8.29,8.29,0,0,0,4-.44,10.1,10.1,0,0,0,6.19-6.59,11.2,11.2,0,0,0,.39-2.43,11.94,11.94,0,0,0-.17-2.37,12.58,12.58,0,0,0-1.53-4.14,12.86,12.86,0,0,0-5.32-4.94,15.37,15.37,0,0,0-4.58-1.45,14.55,14.55,0,0,0-1.74-.16s.6.16,1.64.53a17.49,17.49,0,0,1,4,2.13,12.73,12.73,0,0,1,4.13,4.87,10.57,10.57,0,0,1,.78,7.29,8.72,8.72,0,0,1-4.6,5.34,7,7,0,0,1-3.06.69,6.12,6.12,0,0,1-2.68-.64,7.87,7.87,0,0,1-3.16-2.86,6.91,6.91,0,0,1-.56-1.08Z" transform="translate(-235.39 -120.32)"/><path id="_Path_9" data-name="&lt;Path&gt;" class="cls-1" d="M446.64,145.25a3.27,3.27,0,0,0,.34.36,2.5,2.5,0,0,0,.42.31c.08.07.17.07.26.14a2.93,2.93,0,0,0,.4.09,3.7,3.7,0,0,0,2.45-.58,5,5,0,0,0,2.16-2.77,6.16,6.16,0,0,0-.29-3.87,7.51,7.51,0,0,0-1.94-2.81,8.33,8.33,0,0,0-2-1.27,6.41,6.41,0,0,0-.61-.25l-.21-.08.18.14c.12.09.29.22.5.41a9.29,9.29,0,0,1,1.48,1.6,8.22,8.22,0,0,1,1.24,2.69,5.92,5.92,0,0,1,0,3,4.49,4.49,0,0,1-1.39,2.09,4.23,4.23,0,0,1-1.66.89c-.11,0-.21,0-.3.06s-.13,0-.21,0a1.66,1.66,0,0,1-.44,0A3.92,3.92,0,0,1,446.64,145.25Z" transform="translate(-235.39 -120.32)"/></g><g id="_Group_9" data-name="&lt;Group&gt;"><path id="_Path_10" data-name="&lt;Path&gt;" class="cls-1" d="M261.5,122.83c0,.73.31,1.67,2.05,2.53s4.84,1.73,10.21,3.6a89.72,89.72,0,0,1,8.61,3.6,59.46,59.46,0,0,1,8.25,4.89,55.06,55.06,0,0,1,5.86,4.87l2.19,2.23-.32-.77c-.22-.49-.51-1.23-.95-2.13a40.37,40.37,0,0,0-11.77-14.29,36.49,36.49,0,0,0-9.38-5.24,33.38,33.38,0,0,0-4.29-1.23,22.9,22.9,0,0,0-3.44-.51,15.05,15.05,0,0,0-2.63,0,8.86,8.86,0,0,0-1.89.29C261.92,121.23,261.53,122.12,261.5,122.83Z" transform="translate(-235.39 -120.32)"/></g><g id="_Group_10" data-name="&lt;Group&gt;"><path id="_Path_11" data-name="&lt;Path&gt;" class="cls-1" d="M235.63,137.82c.36.64,1.14,1.26,3,1.07s4.9-1.08,10.27-2.53c2.7-.68,5.75-1.44,8.89-2a70.09,70.09,0,0,1,9.29-1,64.45,64.45,0,0,1,7.41.17l3,.32-.71-.38c-.46-.24-1.14-.62-2-1a43.55,43.55,0,0,0-17.41-4.18,38,38,0,0,0-10.29,1.06c-6.2,1.67-9.21,3.89-10.61,5.37S235.28,137.2,235.63,137.82Z" transform="translate(-235.39 -120.32)"/></g><g id="_Group_11" data-name="&lt;Group&gt;"><path id="_Path_12" data-name="&lt;Path&gt;" class="cls-1" d="M321.21,124.79c-.35-.11-.79,0-1.39.66a6,6,0,0,0-.48.65c-.14.27-.28.58-.43,1a10.56,10.56,0,0,0-.69,3,18.26,18.26,0,0,0,2.59,10.58,24.4,24.4,0,0,0,9.79,9.32,30.83,30.83,0,0,0,5.26,2.08A37.12,37.12,0,0,0,348,153.31a58.18,58.18,0,0,0,12.25-2,82.54,82.54,0,0,0,21.63-9.3,87.61,87.61,0,0,0,8.19-5.73c1.18-1,2.28-1.85,3.27-2.74s1.89-1.72,2.69-2.48,1.49-1.5,2.11-2.12,1.12-1.18,1.52-1.63l1.26-1.4L399.43,127c-.47.38-1.05.85-1.75,1.36s-1.47,1.13-2.39,1.74-1.89,1.32-3,2-2.28,1.43-3.55,2.18c-2.55,1.47-5.44,3-8.59,4.42a91.38,91.38,0,0,1-21.26,6.52,62.05,62.05,0,0,1-11.09,1.08,36.13,36.13,0,0,1-9.9-1.3,27.11,27.11,0,0,1-4-1.55,19.32,19.32,0,0,1-3.15-1.95,20.92,20.92,0,0,1-7.76-11.74c-.21-.91-.39-1.68-.48-2.31-.06-.31-.12-.6-.19-.85a5.51,5.51,0,0,0-.15-.66C321.89,125.23,321.55,124.89,321.21,124.79Z" transform="translate(-235.39 -120.32)"/></g></g></svg>